<svg width="130" height="130" viewBox="0 0 130 130" fill="none" xmlns="http://www.w3.org/2000/svg">
<g clip-path="url(#clip0_161_1748)">
<path d="M130 65C130 65.1938 130 65.3876 130 65.5802C129.688 101.21 100.707 130 65 130C30.0119 130 1.47935 102.355 0.0565741 67.7168C0.044537 67.4243 0.0337037 67.1318 0.0276852 66.8381C0.0092284 66.2282 0 65.6155 0 65C0 64.0691 0.0196605 63.1431 0.0589815 62.2219C20.2716 69.7763 42.1525 73.9074 65 73.9074C87.8475 73.9074 109.728 69.7763 129.941 62.2219C129.978 63.0805 129.997 63.9436 129.999 64.811C130 64.8796 130 64.9374 130 65Z" fill="#F4F4F4"/>
<path d="M129.941 62.2219C109.728 69.7763 87.8475 73.9074 65 73.9074C42.1525 73.9074 20.2716 69.7763 0.0589815 62.2219C0.139228 60.3288 0.299722 58.4571 0.540463 56.6066C4.65352 24.6759 31.9463 0 65 0C97.3568 0 124.192 23.6431 129.172 54.594C129.577 57.1194 129.834 59.6664 129.941 62.2219Z" fill="#ED1C24"/>
<path opacity="0.07" d="M130 65C130 65.1938 130 65.3876 130 65.5802C129.688 101.21 100.707 130 65 130C62.5277 130.001 60.0574 129.862 57.6008 129.584C89.8228 125.928 114.897 98.7121 115.192 65.5802C115.192 65.3876 115.192 65.1938 115.192 65C115.192 64.9374 115.192 64.8796 115.192 64.811C115.192 63.9444 115.173 63.0813 115.134 62.2219C115.027 59.6664 114.77 57.1194 114.365 54.594C109.778 26.0385 86.574 3.7026 57.5996 0.41769C60.0565 0.138518 62.5273 -0.000934776 65 4.71526e-06C97.3568 4.71526e-06 124.192 23.6432 129.172 54.594C129.577 57.1194 129.834 59.6664 129.941 62.2219C129.978 63.0805 129.997 63.9436 129.999 64.811C130 64.8796 130 64.9374 130 65Z" fill="black"/>
<path d="M130 64.811C120.167 69.1991 109.927 72.6088 99.4259 74.9908C87.3561 77.716 75.0204 79.0886 62.6468 79.0833C51.1877 79.0865 39.7589 77.9094 28.541 75.5709C18.7914 73.5308 9.24759 70.6078 0.0276852 66.8381C0.0092284 66.2282 0 65.6155 0 65C0 64.0691 0.0196605 63.1431 0.0589815 62.2219C0.139228 60.3288 0.299722 58.4571 0.540463 56.6066L0.717407 56.6788C20.2547 65.1553 41.0908 69.4537 62.6419 69.4537C85.9456 69.4537 108.32 64.4583 129.143 54.6072L129.172 54.594C129.577 57.1194 129.834 59.6664 129.941 62.2219C129.98 63.0805 130 63.9436 130 64.811Z" fill="black"/>
<path d="M65 86.6667C72.5786 86.6667 78.7222 80.523 78.7222 72.9445C78.7222 65.3659 72.5786 59.2222 65 59.2222C57.4214 59.2222 51.2778 65.3659 51.2778 72.9445C51.2778 80.523 57.4214 86.6667 65 86.6667Z" fill="#F4F4F4"/>
<path d="M85.404 64.3211C83.2657 59.2514 79.32 55.157 74.3329 52.8326C69.3458 50.5081 63.6729 50.1195 58.4154 51.7421C53.1579 53.3648 48.6908 56.8829 45.8811 61.6136C43.0714 66.3444 42.1196 71.9503 43.2104 77.3433C44.3012 82.7363 47.3568 87.5317 51.7841 90.7987C56.2114 94.0657 61.6947 95.5712 67.1695 95.0231C72.6443 94.475 77.7203 91.9123 81.412 87.8325C85.1038 83.7526 87.1481 78.4467 87.1481 72.9445C87.1512 69.9821 86.558 67.0495 85.404 64.3211ZM65 86.6667C62.286 86.6667 59.6329 85.8619 57.3763 84.3541C55.1197 82.8463 53.3609 80.7031 52.3223 78.1957C51.2837 75.6883 51.012 72.9292 51.5414 70.2674C52.0709 67.6055 53.3778 65.1605 55.2969 63.2414C57.216 61.3223 59.6611 60.0154 62.3229 59.4859C64.9848 58.9564 67.7439 59.2282 70.2513 60.2668C72.7587 61.3054 74.9018 63.0642 76.4096 65.3208C77.9174 67.5774 78.7222 70.2305 78.7222 72.9445C78.7222 76.5838 77.2765 80.0741 74.7031 82.6475C72.1297 85.221 68.6394 86.6667 65 86.6667Z" fill="black"/>
</g>
<defs>
<clipPath id="clip0_161_1748">
<rect width="130" height="130" fill="white"/>
</clipPath>
</defs>
</svg>
